<mxfile host="Electron" modified="2024-04-04T18:26:50.448Z" agent="Mozilla/5.0 (Windows NT 10.0; Win64; x64) AppleWebKit/537.36 (KHTML, like Gecko) draw.io/24.1.0 Chrome/120.0.6099.109 Electron/28.1.0 Safari/537.36" etag="7XfB95hDNUlXHFktcTA1" version="24.1.0" type="device">
  <diagram name="PÃ¡gina-1" id="Pt4VFFbkA5mik6HQFDca">
    <mxGraphModel dx="1434" dy="844" grid="1" gridSize="10" guides="1" tooltips="1" connect="1" arrows="1" fold="1" page="1" pageScale="1" pageWidth="827" pageHeight="1169" math="0" shadow="0">
      <root>
        <mxCell id="0" />
        <mxCell id="1" parent="0" />
        <mxCell id="uQimxHNHerJjfzFSW2TF-22" value="" style="rounded=0;whiteSpace=wrap;html=1;fillColor=none;" vertex="1" parent="1">
          <mxGeometry x="73" y="130" width="190" height="150" as="geometry" />
        </mxCell>
        <mxCell id="uQimxHNHerJjfzFSW2TF-19" value="" style="rounded=0;whiteSpace=wrap;html=1;fillColor=none;" vertex="1" parent="1">
          <mxGeometry x="73" y="382" width="190" height="150" as="geometry" />
        </mxCell>
        <mxCell id="uQimxHNHerJjfzFSW2TF-18" value="" style="rounded=0;whiteSpace=wrap;html=1;fillColor=none;" vertex="1" parent="1">
          <mxGeometry x="73" y="612" width="190" height="150" as="geometry" />
        </mxCell>
        <mxCell id="uQimxHNHerJjfzFSW2TF-16" value="" style="rounded=0;whiteSpace=wrap;html=1;fillColor=none;" vertex="1" parent="1">
          <mxGeometry x="315" y="281" width="328" height="252" as="geometry" />
        </mxCell>
        <mxCell id="uQimxHNHerJjfzFSW2TF-10" value="" style="rounded=0;whiteSpace=wrap;html=1;fillColor=none;" vertex="1" parent="1">
          <mxGeometry x="443" y="373" width="190" height="150" as="geometry" />
        </mxCell>
        <mxCell id="uQimxHNHerJjfzFSW2TF-2" value="api gateway" style="sketch=0;points=[[0,0,0],[0.25,0,0],[0.5,0,0],[0.75,0,0],[1,0,0],[0,1,0],[0.25,1,0],[0.5,1,0],[0.75,1,0],[1,1,0],[0,0.25,0],[0,0.5,0],[0,0.75,0],[1,0.25,0],[1,0.5,0],[1,0.75,0]];outlineConnect=0;fontColor=#232F3E;fillColor=#E7157B;strokeColor=#ffffff;dashed=0;verticalLabelPosition=bottom;verticalAlign=top;align=center;html=1;fontSize=12;fontStyle=0;aspect=fixed;shape=mxgraph.aws4.resourceIcon;resIcon=mxgraph.aws4.api_gateway;" vertex="1" parent="1">
          <mxGeometry x="343" y="233" width="78" height="78" as="geometry" />
        </mxCell>
        <mxCell id="uQimxHNHerJjfzFSW2TF-3" value="endpoint" style="sketch=0;outlineConnect=0;fontColor=#232F3E;gradientColor=none;fillColor=#E7157B;strokeColor=none;dashed=0;verticalLabelPosition=bottom;verticalAlign=top;align=center;html=1;fontSize=12;fontStyle=0;aspect=fixed;pointerEvents=1;shape=mxgraph.aws4.endpoint;" vertex="1" parent="1">
          <mxGeometry x="455" y="343" width="50" height="50" as="geometry" />
        </mxCell>
        <mxCell id="uQimxHNHerJjfzFSW2TF-11" style="edgeStyle=orthogonalEdgeStyle;rounded=0;orthogonalLoop=1;jettySize=auto;html=1;" edge="1" parent="1" source="uQimxHNHerJjfzFSW2TF-4" target="uQimxHNHerJjfzFSW2TF-9">
          <mxGeometry relative="1" as="geometry" />
        </mxCell>
        <mxCell id="uQimxHNHerJjfzFSW2TF-4" value="router GET" style="sketch=0;outlineConnect=0;fontColor=#232F3E;gradientColor=none;fillColor=#E7157B;strokeColor=none;dashed=0;verticalLabelPosition=bottom;verticalAlign=top;align=center;html=1;fontSize=12;fontStyle=0;aspect=fixed;pointerEvents=1;shape=mxgraph.aws4.customer_gateway;" vertex="1" parent="1">
          <mxGeometry x="513" y="413" width="50" height="50" as="geometry" />
        </mxCell>
        <mxCell id="uQimxHNHerJjfzFSW2TF-5" value="lambda" style="sketch=0;points=[[0,0,0],[0.25,0,0],[0.5,0,0],[0.75,0,0],[1,0,0],[0,1,0],[0.25,1,0],[0.5,1,0],[0.75,1,0],[1,1,0],[0,0.25,0],[0,0.5,0],[0,0.75,0],[1,0.25,0],[1,0.5,0],[1,0.75,0]];outlineConnect=0;fontColor=#232F3E;fillColor=#ED7100;strokeColor=#ffffff;dashed=0;verticalLabelPosition=bottom;verticalAlign=top;align=center;html=1;fontSize=12;fontStyle=0;aspect=fixed;shape=mxgraph.aws4.resourceIcon;resIcon=mxgraph.aws4.lambda;" vertex="1" parent="1">
          <mxGeometry x="87.5" y="322" width="78" height="78" as="geometry" />
        </mxCell>
        <mxCell id="uQimxHNHerJjfzFSW2TF-6" value="s3&lt;span style=&quot;background-color: initial;&quot;&gt;&amp;nbsp;object&lt;/span&gt;&lt;div&gt;&lt;div&gt;lambda&lt;/div&gt;&lt;/div&gt;" style="sketch=0;outlineConnect=0;fontColor=#232F3E;gradientColor=none;fillColor=#7AA116;strokeColor=none;dashed=0;verticalLabelPosition=bottom;verticalAlign=top;align=center;html=1;fontSize=12;fontStyle=0;aspect=fixed;pointerEvents=1;shape=mxgraph.aws4.s3_object_lambda;" vertex="1" parent="1">
          <mxGeometry x="144" y="642" width="40.77" height="60" as="geometry" />
        </mxCell>
        <mxCell id="uQimxHNHerJjfzFSW2TF-7" value="dynamodb" style="sketch=0;points=[[0,0,0],[0.25,0,0],[0.5,0,0],[0.75,0,0],[1,0,0],[0,1,0],[0.25,1,0],[0.5,1,0],[0.75,1,0],[1,1,0],[0,0.25,0],[0,0.5,0],[0,0.75,0],[1,0.25,0],[1,0.5,0],[1,0.75,0]];outlineConnect=0;fontColor=#232F3E;fillColor=#C925D1;strokeColor=#ffffff;dashed=0;verticalLabelPosition=bottom;verticalAlign=top;align=center;html=1;fontSize=12;fontStyle=0;aspect=fixed;shape=mxgraph.aws4.resourceIcon;resIcon=mxgraph.aws4.dynamodb;" vertex="1" parent="1">
          <mxGeometry x="93" y="80" width="78" height="78" as="geometry" />
        </mxCell>
        <mxCell id="uQimxHNHerJjfzFSW2TF-15" style="edgeStyle=orthogonalEdgeStyle;rounded=0;orthogonalLoop=1;jettySize=auto;html=1;" edge="1" parent="1" source="uQimxHNHerJjfzFSW2TF-9" target="uQimxHNHerJjfzFSW2TF-12">
          <mxGeometry relative="1" as="geometry" />
        </mxCell>
        <mxCell id="uQimxHNHerJjfzFSW2TF-9" value="authentication" style="sketch=0;outlineConnect=0;fontColor=#232F3E;gradientColor=none;fillColor=#E7157B;strokeColor=none;dashed=0;verticalLabelPosition=bottom;verticalAlign=top;align=center;html=1;fontSize=12;fontStyle=0;aspect=fixed;pointerEvents=1;shape=mxgraph.aws4.automation;" vertex="1" parent="1">
          <mxGeometry x="343" y="413" width="50" height="50" as="geometry" />
        </mxCell>
        <mxCell id="uQimxHNHerJjfzFSW2TF-21" style="edgeStyle=orthogonalEdgeStyle;rounded=0;orthogonalLoop=1;jettySize=auto;html=1;" edge="1" parent="1" source="uQimxHNHerJjfzFSW2TF-12" target="uQimxHNHerJjfzFSW2TF-6">
          <mxGeometry relative="1" as="geometry">
            <mxPoint x="13" y="490" as="sourcePoint" />
            <mxPoint x="3" y="732" as="targetPoint" />
            <Array as="points">
              <mxPoint x="53" y="452" />
              <mxPoint x="53" y="682" />
            </Array>
          </mxGeometry>
        </mxCell>
        <mxCell id="uQimxHNHerJjfzFSW2TF-25" style="edgeStyle=orthogonalEdgeStyle;rounded=0;orthogonalLoop=1;jettySize=auto;html=1;" edge="1" parent="1" source="uQimxHNHerJjfzFSW2TF-12" target="uQimxHNHerJjfzFSW2TF-23">
          <mxGeometry relative="1" as="geometry">
            <Array as="points">
              <mxPoint x="53" y="438" />
              <mxPoint x="53" y="200" />
            </Array>
          </mxGeometry>
        </mxCell>
        <mxCell id="uQimxHNHerJjfzFSW2TF-12" value="function&lt;div&gt;authenticator&lt;/div&gt;" style="sketch=0;outlineConnect=0;fontColor=#232F3E;gradientColor=none;fillColor=#ED7100;strokeColor=none;dashed=0;verticalLabelPosition=bottom;verticalAlign=top;align=center;html=1;fontSize=12;fontStyle=0;aspect=fixed;pointerEvents=1;shape=mxgraph.aws4.lambda_function;" vertex="1" parent="1">
          <mxGeometry x="144" y="414" width="48" height="48" as="geometry" />
        </mxCell>
        <mxCell id="uQimxHNHerJjfzFSW2TF-17" value="s3" style="sketch=0;points=[[0,0,0],[0.25,0,0],[0.5,0,0],[0.75,0,0],[1,0,0],[0,1,0],[0.25,1,0],[0.5,1,0],[0.75,1,0],[1,1,0],[0,0.25,0],[0,0.5,0],[0,0.75,0],[1,0.25,0],[1,0.5,0],[1,0.75,0]];outlineConnect=0;fontColor=#232F3E;fillColor=#7AA116;strokeColor=#ffffff;dashed=0;verticalLabelPosition=bottom;verticalAlign=top;align=center;html=1;fontSize=12;fontStyle=0;aspect=fixed;shape=mxgraph.aws4.resourceIcon;resIcon=mxgraph.aws4.s3;" vertex="1" parent="1">
          <mxGeometry x="87.5" y="542" width="78" height="78" as="geometry" />
        </mxCell>
        <mxCell id="uQimxHNHerJjfzFSW2TF-23" value="table" style="sketch=0;outlineConnect=0;fontColor=#232F3E;gradientColor=none;fillColor=#C925D1;strokeColor=none;dashed=0;verticalLabelPosition=bottom;verticalAlign=top;align=center;html=1;fontSize=12;fontStyle=0;aspect=fixed;pointerEvents=1;shape=mxgraph.aws4.table;" vertex="1" parent="1">
          <mxGeometry x="148" y="180" width="40" height="40" as="geometry" />
        </mxCell>
        <mxCell id="uQimxHNHerJjfzFSW2TF-28" style="edgeStyle=orthogonalEdgeStyle;rounded=0;orthogonalLoop=1;jettySize=auto;html=1;entryX=1;entryY=0.5;entryDx=0;entryDy=0;" edge="1" parent="1" source="uQimxHNHerJjfzFSW2TF-27" target="uQimxHNHerJjfzFSW2TF-16">
          <mxGeometry relative="1" as="geometry" />
        </mxCell>
        <mxCell id="uQimxHNHerJjfzFSW2TF-27" value="Internet" style="sketch=0;outlineConnect=0;fontColor=#232F3E;gradientColor=none;strokeColor=#232F3E;fillColor=#ffffff;dashed=0;verticalLabelPosition=bottom;verticalAlign=top;align=center;html=1;fontSize=12;fontStyle=0;aspect=fixed;shape=mxgraph.aws4.resourceIcon;resIcon=mxgraph.aws4.internet;" vertex="1" parent="1">
          <mxGeometry x="703" y="371" width="72" height="72" as="geometry" />
        </mxCell>
      </root>
    </mxGraphModel>
  </diagram>
</mxfile>
